#!OML:ASF I:\Actors\actors\Patient Classification 2\Patient 1\Session 1\actor1.ASF
:FULLY-SPECIFIED
:DEGREES
484
root -0.873542 18.6029 5.40226 -3.67366 2.78573 -0.0236662
lowerback 12.6342 1.14179 11.8189
upperback 4.40373 3.09677 4.81597
thorax -2.04271 1.57639 -1.97714
lowerneck -4.69965 -4.72058 -0.566706
upperneck 7.47023 -5.74056 -7.06121
head 3.03494 -3.12841 -2.44378
rclavicle -6.75868e-015 1.90833e-014
rhumerus 15.2276 5.56373 -62.7028
rradius 51.8645
rwrist -6.60748
rhand -11.5926 -56.2804
rfingers 7.12502
rthumb 14.4495 -85.7574
lclavicle -6.75868e-015 1.90833e-014
lhumerus -45.9757 -15.0204 101.277
lradius 78.3235
lwrist 22.5399
lhand -10.231 -18.7599
lfingers 7.12502
lthumb 15.7612 10.6184
rfemur 12.3078 0.244887 15.1352
rtibia 1.43125e-014
rfoot -17.8732 -14.5804
rtoes -9.70799
lfemur -4.38754 -3.3899 -14.1443
ltibia 24.7987
lfoot -17.8869 5.81637
ltoes -58.3848
485
root -0.873178 18.6023 5.40141 -3.68664 2.79798 0.0235864
lowerback 12.6493 1.13465 11.7509
upperback 4.41783 3.08018 4.8144
thorax -2.04206 1.56842 -1.94005
lowerneck -4.68264 -4.70791 -0.640883
upperneck 7.43168 -5.7232 -7.02072
head 3.02228 -3.11934 -2.41459
rclavicle -6.24184e-014 -4.45278e-014
rhumerus 15.1194 5.99201 -62.374
rradius 51.9881
rwrist -6.78043
rhand -12.3958 -55.9288
rfingers 7.12502
rthumb 13.6756 -85.4595
lclavicle -6.24184e-014 -4.45278e-014
lhumerus -45.9851 -14.9866 101.292
lradius 78.3061
lwrist 22.5618
lhand -10.222 -18.8538
lfingers 7.12502
lthumb 15.7699 10.5237
rfemur 12.3259 0.238433 15.0794
rtibia 5.725e-014
rfoot -17.8679 -14.5752
rtoes -9.73719
lfemur -4.3748 -3.35658 -14.1956
ltibia 24.7948
lfoot -17.8385 5.79794
ltoes -58.4335
486
root -0.872478 18.6013 5.39993 -3.68774 2.8 0.0167608
lowerback 12.6575 1.12683 11.7599
upperback 4.4193 3.072 4.80991
thorax -2.04511 1.56435 -1.94889
lowerneck -4.63753 -4.70754 -0.734959
upperneck 7.39703 -5.72323 -6.95475
head 3.00613 -3.11813 -2.37308
rclavicle 2.90226e-014 5.08889e-014
rhumerus 14.9916 6.42996 -62.126
rradius 52.0215
rwrist -7.37667
rhand -14.1506 -54.5672
rfingers 7.12502
rthumb 11.9839 -84.2041
lclavicle 2.90226e-014 5.08889e-014
lhumerus -46.0172 -14.9809 101.305
lradius 78.3036
lwrist 22.5849
lhand -10.2747 -18.8204
lfingers 7.12502
lthumb 15.7191 10.5612
rfemur 12.3206 0.236342 15.0844
rtibia -6.36111e-015
rfoot -17.8387 -14.5834
rtoes -9.72395
lfemur -4.3727 -3.37325 -14.1929
ltibia 24.7747
lfoot -17.8148 5.82338
ltoes -58.4572
487
root -0.872299 18.6011 5.39843 -3.67346 2.79981 -0.00663578
lowerback 12.6568 1.12166 11.7806
upperback 4.4025 3.06917 4.80303
thorax -2.06132 1.56174 -1.9674
lowerneck -4.58317 -4.70506 -0.737742
upperneck 7.39185 -5.72254 -6.94039
head 2.99447 -3.11634 -2.36541
rclavicle -7.95139e-015 -6.36111e-014
rhumerus 14.8718 6.53579 -62.1243
rradius 52.0546
rwrist -6.54433
rhand -14.2357 -54.3099
rfingers 7.12502
rthumb 11.9019 -83.9516
lclavicle -7.95139e-015 -6.36111e-014
lhumerus -46.091 -14.9906 101.297
lradius 78.3251
lwrist 22.569
lhand -10.2858 -18.7043
lfingers 7.12502
lthumb 15.7084 10.6781
rfemur 12.2937 0.233559 15.1084
rtibia -1.59028e-015
rfoot -17.8258 -14.6012
rtoes -9.65892
lfemur -4.38816 -3.42829 -14.1713
ltibia 24.7527
lfoot -17.8301 5.85384
ltoes -58.439
488
root -0.871947 18.6015 5.39824 -3.66431 2.79912 -0.0080224
lowerback 12.6575 1.12753 11.7911
upperback 4.37883 3.08024 4.78646
thorax -2.08407 1.56544 -1.99258
lowerneck -4.52272 -4.7026 -0.693881
upperneck 7.39743 -5.72293 -6.95494
head 2.98327 -3.11495 -2.3757
rclavicle -1.98785e-015 -1.59028e-014
rhumerus 14.7572 6.5675 -62.1906
rradius 52.0107
rwrist -5.66225
rhand -14.4111 -54.0445
rfingers 7.12502
rthumb 11.7327 -83.6959
lclavicle -1.98785e-015 -1.59028e-014
lhumerus -46.1414 -14.9991 101.294
lradius 78.3099
lwrist 22.5316
lhand -10.2264 -18.618
lfingers 7.12502
lthumb 15.7657 10.7599
rfemur 12.2788 0.234148 15.1052
rtibia 1.11319e-014
rfoot -17.8296 -14.5884
rtoes -9.63689
lfemur -4.39502 -3.46553 -14.172
ltibia 24.7481
lfoot -17.8725 5.8618
ltoes -58.3956
489
root -0.871498 18.6016 5.39886 -3.65823 2.78752 -0.0344514
lowerback 12.6511 1.12994 11.8229
upperback 4.3666 3.08734 4.78282
thorax -2.09055 1.56836 -2.0146
lowerneck -4.51585 -4.6993 -0.636502
upperneck 7.41955 -5.71634 -7.03127
head 2.98629 -3.11316 -2.41147
rclavicle 3.1408e-014 -2.38542e-014
rhumerus 14.7265 6.56122 -62.2255
rradius 51.9181
rwrist -4.92608
rhand -14.407 -53.8468
rfingers 7.12502
rthumb 11.7367 -83.498
lclavicle 3.1408e-014 -2.38542e-014
lhumerus -46.1233 -14.9785 101.302
lradius 78.2663
lwrist 22.5276
lhand -10.2007 -18.6178
lfingers 7.12502
lthumb 15.7904 10.7582
rfemur 12.2712 0.242882 15.1351
rtibia 4.77083e-015
rfoot -17.8166 -14.5958
rtoes -9.8171
lfemur -4.39926 -3.4813 -14.1419
ltibia 24.755
lfoot -17.913 5.85291
ltoes -58.3514
490
root -0.871926 18.6011 5.39886 -3.64469 2.76319 -0.0988948
lowerback 12.6435 1.12495 11.8501
upperback 4.35921 3.08443 4.80782
thorax -2.0944 1.56641 -2.00254
lowerneck -4.5305 -4.69033 -0.601216
upperneck 7.4366 -5.69981 -7.11201
head 2.9926 -3.10749 -2.44527
rclavicle 8.74653e-015 2.8625e-014
rhumerus 14.7036 6.55968 -62.2848
rradius 51.8876
rwrist -4.41064
rhand -14.3435 -53.6688
rfingers 7.12502
rthumb 11.7979 -83.3165
lclavicle 8.74653e-015 2.8625e-014
lhumerus -46.0992 -14.953 101.317
lradius 78.2715
lwrist 22.5636
lhand -10.2203 -18.6132
lfingers 7.12502
lthumb 15.7715 10.7643
rfemur 12.2501 0.259092 15.215
rtibia -2.70347e-014
rfoot -17.8225 -14.6066
rtoes -9.77887
lfemur -4.42069 -3.45766 -14.0615
ltibia 24.7672
lfoot -17.9169 5.82605
ltoes -58.3212
491
root -0.871758 18.6012 5.39826 -3.60766 2.7388 -0.127326
lowerback 12.6107 1.12154 11.853
upperback 4.34863 3.07618 4.81126
thorax -2.08879 1.56223 -1.99848
lowerneck -4.52468 -4.67612 -0.61841
upperneck 7.43765 -5.68209 -7.07567
head 2.99388 -3.0978 -2.42934
rclavicle 1.63003e-014 3.18055e-014
rhumerus 14.6316 6.54831 -62.4028
rradius 51.9134
rwrist -4.18865
rhand -14.3505 -53.6033
rfingers 7.12502
rthumb 11.7912 -83.2514
lclavicle 1.63003e-014 3.18055e-014
lhumerus -46.0942 -14.9481 101.311
lradius 78.3127
lwrist 22.6037
lhand -10.2317 -18.5772
lfingers 7.12502
lthumb 15.7605 10.8011
rfemur 12.2026 0.277309 15.2507
rtibia -1.59028e-014
rfoot -17.8515 -14.6028
rtoes -9.6717
lfemur -4.46919 -3.4181 -14.0206
ltibia 24.783
lfoot -17.8969 5.7991
ltoes -58.3144
492
root -0.870476 18.6015 5.39809 -3.58893 2.73679 -0.109609
lowerback 12.584 1.11915 11.845
upperback 4.34571 3.06738 4.79146
thorax -2.07769 1.55845 -2.013
lowerneck -4.54455 -4.67619 -0.615649
upperneck 7.46203 -5.6825 -7.04725
head 3.00657 -3.09772 -2.42203
rclavicle 8.3092e-014 4.13472e-014
rhumerus 14.5618 6.49481 -62.523
rradius 51.8804
rwrist -4.07851
rhand -14.555 -53.5035
rfingers 7.12502
rthumb 11.5939 -83.1628
lclavicle 8.3092e-014 4.13472e-014
lhumerus -46.071 -14.9419 101.306
lradius 78.3209
lwrist 22.5946
lhand -10.208 -18.5601
lfingers 7.12502
lthumb 15.7833 10.8165
rfemur 12.1806 0.280117 15.2262
rtibia -3.18055e-014
rfoot -17.8579 -14.6029
rtoes -9.75861
lfemur -4.49143 -3.42162 -14.0422
ltibia 24.7915
lfoot -17.8867 5.79477
ltoes -58.3143
493
root -0.869489 18.6014 5.3982 -3.59236 2.7445 -0.0763506
lowerback 12.5827 1.1233 11.8118
upperback 4.34676 3.0683 4.78319
thorax -2.07741 1.55889 -2.00376
lowerneck -4.58694 -4.68911 -0.606943
upperneck 7.50522 -5.69499 -7.07391
head 3.02804 -3.1062 -2.43615
rclavicle 1.86858e-014 6.04305e-014
rhumerus 14.4928 6.39532 -62.6313
rradius 51.7833
rwrist -3.8353
rhand -14.9264 -53.1971
rfingers 7.12502
rthumb 11.2357 -82.8762
lclavicle 1.86858e-014 6.04305e-014
lhumerus -46.0153 -14.9265 101.326
lradius 78.2937
lwrist 22.5415
lhand -10.071 -18.5842
lfingers 7.12502
lthumb 15.9153 10.7819
rfemur 12.1859 0.276448 15.1839
rtibia -2.8625e-014
rfoot -17.8643 -14.5935
rtoes -9.65797
lfemur -4.48382 -3.43739 -14.0853
ltibia 24.787
lfoot -17.899 5.80015
ltoes -58.2742
494
root -0.868588 18.6017 5.39851 -3.57879 2.7285 -0.0479004
lowerback 12.5732 1.13753 11.7854
upperback 4.34275 3.08238 4.775
thorax -2.07606 1.56569 -1.99955
lowerneck -4.62008 -4.69557 -0.622401
upperneck 7.53464 -5.69855 -7.09124
head 3.04431 -3.11018 -2.44177
rclavicle 2.78299e-014 4.13472e-014
rhumerus 14.4295 6.27966 -62.7409
rradius 51.6662
rwrist -3.53686
rhand -15.0915 -52.733
rfingers 7.12502
rthumb 11.0765 -82.4207
lclavicle 2.78299e-014 4.13472e-014
lhumerus -45.9684 -14.916 101.342
lradius 78.2816
lwrist 22.4955
lhand -9.9012 -18.637
lfingers 7.12502
lthumb 16.0788 10.716
rfemur 12.1702 0.293982 15.1514
rtibia 9.54166e-015
rfoot -17.8444 -14.5997
rtoes -9.71395
lfemur -4.48452 -3.46397 -14.1244
ltibia 24.777
lfoot -17.9349 5.81146
ltoes -58.1867
495
root -0.867937 18.6022 5.39817 -3.58185 2.71588 -0.0824186
lowerback 12.5876 1.13773 11.8306
upperback 4.33908 3.09078 4.7776
thorax -2.0841 1.56945 -2.02302
lowerneck -4.61862 -4.68623 -0.600108
upperneck 7.52638 -5.6847 -7.13936
head 3.03997 -3.10425 -2.46094
rclavicle 2.50469e-014 5.24792e-014
rhumerus 14.385 6.16616 -62.8216
rradius 51.6152
rwrist -3.56441
rhand -14.8078 -52.3865
rfingers 7.12502
rthumb 11.3501 -82.0594
lclavicle 2.50469e-014 5.24792e-014
lhumerus -45.9522 -14.9247 101.352
lradius 78.2886
lwrist 22.4898
lhand -9.904 -18.691
lfingers 7.12502
lthumb 16.0761 10.6621
rfemur 12.1678 0.303844 15.1904
rtibia -1.43125e-014
rfoot -17.8004 -14.6179
rtoes -10.0079
lfemur -4.47721 -3.49233 -14.0914
ltibia 24.7731
lfoot -17.9427 5.82897
ltoes -58.1623
496
root -0.867964 18.6024 5.3968 -3.59575 2.73504 -0.129022
lowerback 12.6042 1.12511 11.87
upperback 4.34295 3.08185 4.79455
thorax -2.08858 1.56502 -2.02594
lowerneck -4.61664 -4.67249 -0.569071
upperneck 7.5121 -5.66555 -7.1937
head 3.03329 -3.09553 -2.48333
rclavicle -3.97569e-015 -7.95139e-015
rhumerus 14.3554 6.15404 -62.8403
rradius 51.6233
rwrist -5.19284
rhand -15.093 -52.0771
rfingers 7.12502
rthumb 11.0751 -81.7649
lclavicle -3.97569e-015 -7.95139e-015
lhumerus -45.9498 -14.931 101.365
lradius 78.3039
lwrist 22.4943
lhand -9.97344 -18.7616
lfingers 7.12502
lthumb 16.0092 10.597
rfemur 12.1783 0.282211 15.2394
rtibia 4.77083e-015
rfoot -17.8327 -14.6249
rtoes -9.97781
lfemur -4.48007 -3.47679 -14.0385
ltibia 24.78
lfoot -17.9172 5.84658
ltoes -58.2464
497
root -0.867148 18.6022 5.39645 -3.59123 2.77146 -0.13355
lowerback 12.5697 1.11697 11.8793
upperback 4.35531 3.06539 4.79281
thorax -2.05776 1.55898 -2.02913
lowerneck -4.64177 -4.67101 -0.522606
upperneck 7.50609 -5.66253 -7.25359
head 3.03343 -3.09521 -2.51225
rclavicle -1.63003e-014 1.27222e-014
rhumerus 14.335 6.00085 -62.8991
rradius 51.7833
rwrist -7.74607
rhand -14.2777 -53.1006
rfingers 7.12502
rthumb 11.8613 -82.7446
lclavicle -1.63003e-014 1.27222e-014
lhumerus -45.9554 -14.9418 101.358
lradius 78.3446
lwrist 22.4777
lhand -9.97776 -18.7981
lfingers 7.12502
lthumb 16.0051 10.5607
rfemur 12.1789 0.246285 15.2361
rtibia 4.77083e-015
rfoot -17.8967 -14.6079
rtoes -9.69435
lfemur -4.50077 -3.47258 -14.0362
ltibia 24.7899
lfoot -17.9162 5.83445
ltoes -58.2801
498
root -0.866964 18.6022 5.39869 -3.55907 2.82968 -0.152055
lowerback 12.4654 1.10801 11.8977
upperback 4.36538 3.03795 4.79141
thorax -1.99203 1.54931 -2.03296
lowerneck -4.64534 -4.67436 -0.506387
upperneck 7.48091 -5.66894 -7.2641
head 3.02454 -3.09786 -2.51805
rclavicle -4.13472e-014 -6.67916e-014
rhumerus 14.2355 5.89173 -62.9323
rradius 52.0472
rwrist -11.5231
rhand -13.7521 -53.8288
rfingers 7.12502
rthumb 12.3681 -83.4429
lclavicle -4.13472e-014 -6.67916e-014
lhumerus -45.9389 -14.9733 101.337
lradius 78.3729
lwrist 22.4704
lhand -9.98693 -18.792
lfingers 7.12502
lthumb 15.9962 10.5676
rfemur 12.1662 0.184436 15.2513
rtibia 4.77083e-015
rfoot -17.9224 -14.5721
rtoes -9.49615
lfemur -4.54442 -3.515 -14.0137
ltibia 24.8015
lfoot -17.9262 5.78833
ltoes -58.258
